<svg xmlns="http://www.w3.org/2000/svg" viewBox="0 0 48 48" role="img" aria-labelledby="title">
  <title id="title">Invoice Studio</title>
  <defs>
    <linearGradient id="frame" x1="5" y1="4" x2="43" y2="44" gradientUnits="userSpaceOnUse">
      <stop stop-color="#9a79ff"/>
      <stop offset="1" stop-color="#635be8"/>
    </linearGradient>
    <linearGradient id="top" x1="13" y1="8" x2="34" y2="25" gradientUnits="userSpaceOnUse">
      <stop stop-color="#8d9aff"/>
      <stop offset="1" stop-color="#79b3fb"/>
    </linearGradient>
    <linearGradient id="right" x1="31" y1="13" x2="38" y2="35" gradientUnits="userSpaceOnUse">
      <stop stop-color="#78b9fb"/>
      <stop offset="1" stop-color="#6594f2"/>
    </linearGradient>
    <linearGradient id="bottom" x1="16" y1="27" x2="31" y2="40" gradientUnits="userSpaceOnUse">
      <stop stop-color="#718de9"/>
      <stop offset="1" stop-color="#7cb4f6"/>
    </linearGradient>
  </defs>
  <rect x="3" y="3" width="42" height="42" rx="11" fill="url(#frame)"/>
  <path d="M11 13 24 7l13 7-13 11Z" fill="url(#top)"/>
  <path d="m11 13 13 12-10 13-6-9V18Z" fill="#7d75ee"/>
  <path d="m37 14 3 6v10l-6 9-10-14Z" fill="url(#right)"/>
  <path d="m14 38 10-13 10 14-10 4Z" fill="url(#bottom)"/>
  <path d="m11 13 13 12 13-11-13-7Z" fill="#9aabff" fill-opacity=".22"/>
  <rect x="3.75" y="3.75" width="40.5" height="40.5" rx="10.25" fill="none" stroke="#7464ef" stroke-width="1.5"/>
</svg>
